<svg width="66" height="19" viewBox="0 0 66 19" fill="none" xmlns="http://www.w3.org/2000/svg">
<g clip-path="url(#clip0_1_83)">
<path d="M11.477 10.5917C11.2926 11.1617 11.1247 11.6713 10.9638 12.1833C10.6808 13.0878 10.4084 13.9946 10.1183 14.8967C9.92921 15.4848 10.0549 15.8712 10.5669 16.1828C11.4289 16.7069 11.3925 16.696 11.1141 17.679C10.7654 18.9071 10.6397 18.8032 9.55342 18.7996C6.63162 18.7887 3.70982 18.7827 0.789198 18.7694C0.618917 18.7682 0.432194 18.7682 0.284225 18.6994C0.045831 18.5895 -0.0445945 18.3649 0.0235182 18.0968C0.0704924 17.9132 0.143303 17.7369 0.187928 17.5522C0.346466 16.8952 0.670589 16.4943 1.39164 16.376C2.17729 16.248 2.65642 15.6068 2.97585 14.9027C3.3399 14.1021 3.6558 13.2737 3.93882 12.4393C4.41326 11.0409 4.8466 9.62805 5.29403 8.22002C5.72972 6.84821 6.16892 5.47761 6.59169 4.10098C6.85005 3.25929 6.61283 2.73158 5.83776 2.32946C5.36214 2.08312 5.30225 1.94545 5.46431 1.4274C5.55474 1.13879 5.6569 0.852596 5.7579 0.567608C5.86946 0.254846 6.09729 0.114767 6.41436 0.115975C8.71963 0.125635 11.0249 0.135296 13.3301 0.146164C13.9338 0.148579 14.5386 0.154617 15.1422 0.161862C15.7493 0.169108 15.902 0.364735 15.7646 0.961278C15.7247 1.13396 15.6624 1.30061 15.6178 1.47087C15.4992 1.92734 15.2725 2.24976 14.7899 2.38742C13.9643 2.6229 13.6519 3.32209 13.4276 4.09132C13.0636 5.33995 12.6854 6.58375 12.3155 7.83118C12.2779 7.96039 12.2615 8.09564 12.3085 8.30696C12.5774 8.12824 12.851 7.95797 13.1129 7.76959C14.9919 6.42677 16.8697 5.08273 18.7451 3.73508C19.007 3.5467 19.263 3.34745 19.5002 3.12888C19.7633 2.88615 19.7363 2.64464 19.4532 2.44539C18.9013 2.05655 18.859 1.94545 19.0845 1.28974C19.445 0.24277 19.2419 0.225864 20.5301 0.24277C22.9704 0.274167 25.4108 0.321262 27.8522 0.364735C28.4077 0.374396 28.5897 0.615911 28.4641 1.16294C28.4242 1.33563 28.3678 1.50348 28.3243 1.67496C28.2034 2.15678 27.9826 2.43814 27.4248 2.48645C26.0825 2.60358 24.9645 3.27741 23.8888 4.08286C22.0697 5.44622 20.2084 6.7516 18.3634 8.07873C17.8679 8.43497 17.8702 8.43617 18.246 8.94456C19.7457 10.9685 21.2371 12.9996 22.7426 15.0199C23.0186 15.3906 23.3204 15.748 23.6504 16.0681C24.0755 16.4786 24.5993 16.6851 25.1911 16.7165C25.8417 16.7515 26.0191 17.0245 25.8347 17.6645C25.7443 17.9796 25.6926 18.3202 25.5364 18.5979C25.4319 18.7851 25.1724 19.0025 24.9856 19C23.1008 18.9723 21.2124 18.9687 19.3346 18.825C17.5073 18.6849 16.0864 17.7188 14.9508 16.2419C13.7106 14.6298 12.8322 12.8016 11.8516 11.0325C11.7964 10.9334 11.7389 10.8356 11.6743 10.7439C11.6485 10.7064 11.6003 10.6847 11.477 10.5917Z" fill="#E4002B"/>
<path d="M38.4919 0.264434C41.2281 0.301869 43.9632 0.339304 46.6994 0.379154C47.2514 0.387607 47.4358 0.632745 47.3125 1.17736C47.0224 2.45981 46.7335 3.74225 46.4423 5.0247C46.2919 5.68645 46.1933 5.76977 45.5462 5.77098C45.1516 5.77219 44.7571 5.76494 44.3636 5.75045C43.9456 5.73596 43.7718 5.53913 43.7495 5.11527C43.7354 4.83873 43.733 4.55254 43.6579 4.29049C43.4805 3.67342 43.0002 3.39447 42.4248 3.37636C40.9474 3.32926 39.4678 3.32685 37.9892 3.32805C37.8777 3.32805 37.6945 3.48262 37.6651 3.59734C37.3257 4.94621 37.0087 6.2999 36.6892 7.65359C36.5824 8.10522 36.6035 8.13179 37.0486 8.13662C38.8606 8.15353 40.6715 8.16923 42.4835 8.18251C43.1881 8.18734 43.3643 8.42282 43.1928 9.12442C43.0308 9.78738 42.8722 10.4528 42.7289 11.1205C42.642 11.5227 42.4213 11.6833 42.0232 11.6797C40.0761 11.6615 38.1278 11.6688 36.1807 11.6398C35.8038 11.6338 35.657 11.7763 35.5806 12.1301C35.3916 13.008 35.1755 13.8799 34.9688 14.7529C34.7985 15.4751 35.044 16.039 35.6887 16.4061C36.317 16.7635 36.3381 16.8131 36.1643 17.5134C36.0903 17.8081 36.0093 18.1003 35.9435 18.3962C35.859 18.779 35.6323 18.9336 35.253 18.9311C33.3306 18.9154 31.407 18.9118 29.4846 18.9046C28.9303 18.9022 28.3748 18.9046 27.8205 18.8997C27.2345 18.8937 27.0337 18.6389 27.1769 18.0557C27.487 16.7925 27.8029 15.5306 28.127 14.2711C28.6155 12.374 29.1158 10.4805 29.6055 8.58343C29.9743 7.15124 30.3336 5.71664 30.6965 4.28325C30.9372 3.33409 30.7188 2.84623 29.8533 2.40305C29.3671 2.15429 29.3272 2.08425 29.4388 1.54567C29.4975 1.26189 29.5691 0.979319 29.6619 0.705199C29.7852 0.336889 30.0482 0.184734 30.4323 0.189564C32.7364 0.218546 35.0416 0.239075 37.3457 0.257189C37.7274 0.260811 38.109 0.243905 38.4919 0.23666C38.4919 0.24632 38.4919 0.254773 38.4919 0.264434Z" fill="#E4002B"/>
<path d="M57.7525 18.9276C56.2023 18.9469 53.8419 18.7416 51.5789 17.8552C50.1215 17.2853 48.7851 16.51 47.7211 15.3181C46.0923 13.4923 45.4617 11.3452 45.8704 8.89624C46.2978 6.33135 47.451 4.19515 49.4956 2.61926C51.0246 1.44067 52.7791 0.781331 54.6404 0.425096C58.2727 -0.270467 61.8757 -0.117105 65.4398 0.899674C65.9331 1.03975 66.0716 1.25712 65.9671 1.76309C65.6994 3.05157 65.4234 4.33885 65.1451 5.62492C65.0476 6.07776 64.9243 6.17799 64.4851 6.16229C64.0423 6.14659 63.5984 6.12727 63.1569 6.08138C62.8328 6.04757 62.6366 5.83624 62.646 5.4945C62.6742 4.363 61.9637 3.44887 60.7729 3.12282C58.3232 2.45262 55.5893 3.25082 54.0427 5.57662C53.0374 7.0885 52.6182 8.77186 52.8824 10.5953C53.1243 12.2726 54.0321 13.5019 55.4414 14.346C57.1148 15.3483 58.9538 15.5717 60.8363 15.4534C61.8651 15.3894 62.8879 15.201 63.9073 15.0307C64.5814 14.9172 64.8397 15.1358 64.7364 15.8398C64.6424 16.4786 64.525 17.1138 64.4252 17.7526C64.3641 18.1414 64.1128 18.2864 63.7699 18.3673C62.0671 18.7658 60.3384 18.9034 57.7525 18.9276Z" fill="#E4002B"/>
</g>
<defs>
<clipPath id="clip0_1_83">
<rect width="66" height="19" fill="white"/>
</clipPath>
</defs>
</svg>
